<?xml version="1.0" encoding="utf-8"?>
<!-- Generator: Adobe Illustrator 22.1.0, SVG Export Plug-In . SVG Version: 6.00 Build 0)  -->
<svg version="1.1" xmlns="http://www.w3.org/2000/svg" xmlns:xlink="http://www.w3.org/1999/xlink" x="0px" y="0px"
	 viewBox="0 0 1366 768" style="enable-background:new 0 0 1366 768;" xml:space="preserve">
<style type="text/css">
	.st0{fill:#D1D1D1;}
	.st1{fill:#000044;}
	.st2{font-family:'Cambria';}
	.st3{font-size:33.4179px;}
	.st4{fill:#4D4D4D;}
	.st5{font-size:20px;}
	.st6{font-size:65.067px;}
	.st7{font-size:64.2652px;}
	.st8{fill:#FFFFFF;}
	.st9{fill:#990000;}
	.st10{fill:#333333;}
	.st11{fill:#CCCCCC;stroke:#B3B3B3;stroke-linecap:round;stroke-miterlimit:10;}
	.st12{fill:#DDDDDD;stroke:#B3B3B3;stroke-linecap:round;stroke-miterlimit:10;}
	.st13{fill:none;stroke:#FFFFFF;stroke-width:0.5;stroke-miterlimit:10;}
	.st14{fill:none;stroke:#FFFFFF;stroke-width:0.5;stroke-miterlimit:10;stroke-dasharray:4.423,5.5288;}
	.st15{display:none;fill:#FFFFFF;stroke:#00005B;stroke-miterlimit:10;}
	.st16{fill:#3A3A3A;}
	.st17{fill:#F15A24;}
</style>
<g id="logo1">
	<rect x="-1331" y="53" class="st0" width="77.7" height="98.8"/>
	<rect x="-1242.9" y="62.7" style="fill:none;" width="149.2" height="36.3"/>
	<text transform="matrix(1 0 0 1 -1242.9277 92.5322)" class="st1 st2" style="font-size:35.7843px;">Tankards </text>
	<g>
		<rect x="-1092.9" y="62.1" style="fill:none;" width="159.8" height="30.9"/>
		<text transform="matrix(1 0 0 1 -1092.8779 91.958)"><tspan x="0" y="0" class="st1 st2" style="font-size:35.7821px;">Associ</tspan><tspan x="97.8" y="0" class="st1 st2" style="font-size:35.7821px;">-</tspan></text>
	</g>
	<rect x="-1314.8" y="53" class="st1" width="22.7" height="98.8"/>
	
		<rect x="-1139.1" y="-85.4" transform="matrix(-1.836970e-16 1 -1 -1.836970e-16 -1010.0389 1245.5669)" class="st1" width="22.7" height="406.4"/>
	<text transform="matrix(1 0 0 1 -1165.7842 123.4863)" class="st8 st2" style="font-size:16.191px;">Law  office in Tront </text>
</g>
<g id="logo2">
	<text transform="matrix(1 0 0 1 -1214.333 260.9888)" class="st1 st2 st3">Tankards </text>
	<g>
		<text transform="matrix(1 0 0 1 -1071.2168 260.0757)" class="st1 st2 st3">Associates</text>
	</g>
	<g>
		<text transform="matrix(1 0 0 1 -1165.9297 284.8247)" class="st4 st2 st5">Law  office in Toronto </text>
	</g>
	<g>
		<text transform="matrix(1 0 0 1 -1329.7451 280.7153)" class="st1 st2 st6">T</text>
	</g>
	<text transform="matrix(1 0 0 1 -1270.6221 281.7681)" class="st4 st2 st7">A</text>
	<rect x="-1281.1" y="231.6" class="st1" width="1.5" height="51.4"/>
	<text transform="matrix(1 0 0 1 572.667 353.9888)" class="st1 st2 st3">Tankards </text>
	<g>
		<text transform="matrix(1 0 0 1 715.7832 353.0757)" class="st1 st2 st3">Associates</text>
	</g>
	<g>
		<text transform="matrix(1 0 0 1 621.0703 377.8247)" class="st4 st2 st5">Law  office in Toronto </text>
	</g>
	<g>
		<text transform="matrix(1 0 0 1 457.2549 373.7153)" class="st1 st2 st6">T</text>
	</g>
	<text transform="matrix(1 0 0 1 516.3779 374.7681)" class="st4 st2 st7">A</text>
	<rect x="505.9" y="324.6" class="st1" width="1.5" height="51.4"/>
</g>
<g id="logo3">
	<text transform="matrix(1 0 0 1 -858 129)" class="st2" style="fill:#00276B; font-size:93px;">T</text>
	<rect x="-835" y="99" class="st8" width="9" height="8"/>
	<rect x="-826" y="99" class="st9" width="9" height="8"/>
	<rect x="-817" y="107" class="st10" width="9" height="8"/>
	<text transform="matrix(1 0 0 1 -666.9995 125.0063)" class="st10 st2" style="font-size:14px;">Law office in Tront</text>
	<line class="st11" x1="-786.3" y1="121" x2="-677.7" y2="121"/>
	<line class="st12" x1="-548.3" y1="123" x2="-419" y2="123"/>
</g>
<g id="logo4">
	<rect x="-189" y="51.4" class="st1" width="136" height="136"/>
	<rect x="-159.3" y="47.5" style="fill:none;" width="76.5" height="109.5"/>
	<text transform="matrix(1 0 0 1 -159.3125 155.0186)" class="st8 st2" style="font-size:129.0257px;">T</text>
	<text transform="matrix(0.9942 -0.1073 0.1073 0.9942 -96.6122 134.2777)" class="st8 st2" style="font-size:29.1043px;">A</text>
	<g>
		<text transform="matrix(1 0 0 1 -178.3535 175.4043)" class="st8 st2" style="font-size:13px;">Tankards Associates</text>
	</g>
	<g>
		<line class="st8" x1="-88.9" y1="92.8" x2="-88.9" y2="112.3"/>
		<g>
			<line class="st13" x1="-88.9" y1="92.8" x2="-88.9" y2="94.8"/>
			<line class="st14" x1="-88.9" y1="100.3" x2="-88.9" y2="107.5"/>
			<line class="st13" x1="-88.9" y1="110.3" x2="-88.9" y2="112.3"/>
		</g>
	</g>
</g>
<g id="logo5">
	<path class="st8" d="M-235.2,119.8"/>
</g>
<g id="logo6">
	<rect x="-1329.5" y="358.5" class="st15" width="135" height="135"/>
	<rect x="-1308" y="377" class="st8" width="267" height="103"/>
	<g>
		<g>
			<g>
				<path class="st1" d="M-1277.5,421.3h3.4l7.8,23h-3.2l-4-12.8c-0.8-2.6-1.6-5.1-2.3-7.8h-0.1c-0.7,2.7-1.5,5.2-2.3,7.8l-4,12.8
					h-3L-1277.5,421.3z M-1281.1,434.9h10.6v2.4h-10.6V434.9z"/>
				<path class="st1" d="M-1263.9,442.1l1.3-1.9c2,1.4,4.3,2.3,7.4,2.3c2.9,0,4.3-1.2,4.3-2.6c0-1.3-0.7-2.2-5.3-3.2
					c-4.5-0.9-6.7-2.4-6.7-5c0-2.7,2.4-4.8,7.1-4.8c2.6,0,5.2,1,6.9,2.2l-1.4,1.9c-1.6-1.1-3.5-1.8-5.7-1.8c-2.9,0-3.9,1.2-3.9,2.5
					c0,1.5,1.5,2.1,5,2.8c5.7,1.2,7,2.6,7,5.3c0,2.8-2.7,5.1-7.6,5.1C-1258.9,444.7-1261.9,443.5-1263.9,442.1z"/>
				<path class="st1" d="M-1244.6,442.1l1.3-1.9c2,1.4,4.3,2.3,7.4,2.3c2.9,0,4.3-1.2,4.3-2.6c0-1.3-0.7-2.2-5.3-3.2
					c-4.5-0.9-6.7-2.4-6.7-5c0-2.7,2.4-4.8,7.1-4.8c2.6,0,5.2,1,6.9,2.2l-1.4,1.9c-1.6-1.1-3.5-1.8-5.7-1.8c-2.9,0-3.9,1.2-3.9,2.5
					c0,1.5,1.5,2.1,5,2.8c5.7,1.2,7,2.6,7,5.3c0,2.8-2.7,5.1-7.6,5.1C-1239.5,444.7-1242.5,443.5-1244.6,442.1z"/>
				<path class="st1" d="M-1223.9,435.8c0-5.7,3.9-9,8.4-9s8.4,3.3,8.4,9c0,5.7-3.9,8.9-8.4,8.9S-1223.9,441.5-1223.9,435.8z
					 M-1210,435.8c0-3.9-2.2-6.6-5.4-6.6s-5.4,2.6-5.4,6.6c0,3.9,2.2,6.5,5.4,6.5S-1210,439.7-1210,435.8z"/>
				<path class="st1" d="M-1202.1,435.8c0-5.7,4.4-9,9.5-9c2.8,0,4.8,1.1,6.2,2.5l-1.4,1.9c-1.4-1.2-2.9-1.9-4.7-1.9
					c-3.9,0-6.6,2.6-6.6,6.6c0,3.9,2.7,6.5,6.6,6.5c2.1,0,3.9-0.9,5.3-2.1l1.3,1.9c-1.9,1.7-4.2,2.7-6.8,2.7
					C-1198.1,444.7-1202.1,441.5-1202.1,435.8z"/>
				<path class="st1" d="M-1175.3,429.6h-7.9v-2.4h10.8v17.1h-2.9V429.6z M-1176.5,421.4c0-1.3,1-2.2,2.3-2.2c1.3,0,2.3,0.9,2.3,2.2
					c0,1.4-1,2.2-2.3,2.2C-1175.5,423.7-1176.5,422.8-1176.5,421.4z"/>
				<path class="st1" d="M-1166.2,439.9c0-3.8,3.6-5.7,12.4-6.4c-0.1-2.3-1.2-4.3-4.5-4.3c-2.2,0-4.4,1.1-6,2l-1.2-2
					c1.8-1.1,4.6-2.5,7.6-2.5c4.7,0,6.9,2.8,6.9,7v10.5h-2.4l-0.2-2.3h-0.1c-1.9,1.5-4.3,2.7-6.7,2.7
					C-1163.5,444.7-1166.2,442.9-1166.2,439.9z M-1153.8,439.9v-4.4c-7.3,0.6-9.5,2-9.5,4.2c0,1.9,1.8,2.7,3.7,2.7
					C-1157.6,442.4-1155.7,441.5-1153.8,439.9z"/>
				<path class="st1" d="M-1142.7,437.7v-8.1h-4.8v-2.2l4.9-0.2l0.4-5.5h2.4v5.5h8.4v2.4h-8.4v8.1c0,3.1,1,4.6,4.3,4.6
					c1.6,0,2.8-0.3,4.1-0.8l0.6,2.1c-1.5,0.6-3.2,1-5.3,1C-1141.1,444.7-1142.7,441.9-1142.7,437.7z"/>
				<path class="st1" d="M-1126.5,435.8c0-5.5,4.1-8.9,8.7-8.9c4.9,0,7.8,3.2,7.8,8c0,0.7-0.1,1.3-0.1,1.8h-14.4v-2.2h12.7l-0.7,0.8
					c0-4-2-6-5.1-6c-3.2,0-5.9,2.4-5.9,6.6c0,4.4,2.9,6.7,6.7,6.7c2,0,3.6-0.6,5.2-1.6l1.1,1.9c-1.7,1.1-3.9,2-6.6,2
					C-1122.4,444.7-1126.5,441.4-1126.5,435.8z"/>
				<path class="st1" d="M-1107,442.1l1.3-1.9c2,1.4,4.3,2.3,7.4,2.3c2.9,0,4.3-1.2,4.3-2.6c0-1.3-0.7-2.2-5.3-3.2
					c-4.5-0.9-6.7-2.4-6.7-5c0-2.7,2.4-4.8,7.1-4.8c2.6,0,5.2,1,6.9,2.2l-1.4,1.9c-1.6-1.1-3.5-1.8-5.7-1.8c-2.9,0-3.9,1.2-3.9,2.5
					c0,1.5,1.5,2.1,5,2.8c5.7,1.2,7,2.6,7,5.3c0,2.8-2.7,5.1-7.6,5.1C-1102,444.7-1104.9,443.5-1107,442.1z"/>
			</g>
		</g>
	</g>
	<g>
		<g>
			<path d="M-1269,457h1.4l-1.7,8.6h4.7l-0.2,1.2h-6.2L-1269,457z"/>
			<path d="M-1262.6,464.2c0-2.6,1.8-4.9,4-4.9c1,0,1.8,0.4,2.2,1.1h0.1l0.3-0.9h1.1l-1.5,7.3h-1.1l0.1-1.1h-0.1
				c-0.8,0.8-1.7,1.3-2.6,1.3C-1261.6,467-1262.6,466-1262.6,464.2z M-1257.3,464.5l0.6-3.1c-0.4-0.7-1.1-1-1.7-1
				c-1.5,0-2.8,1.6-2.8,3.5c0,1.3,0.6,1.9,1.5,1.9C-1258.9,465.8-1258,465.4-1257.3,464.5z"/>
			<path d="M-1253.6,459.5h1.4l0,4.1c0,0.7,0,1.3-0.1,2h0.1c0.2-0.7,0.5-1.4,0.8-2.1l1.5-3.6h1.3l0.1,3.6c0,0.7,0,1.4,0,2.1h0.1
				c0.3-0.7,0.5-1.3,0.7-2l1.6-4.1h1.3l-2.9,7.3h-1.7l-0.1-3.5c0-0.7,0-1.3,0-2h-0.1c-0.3,0.8-0.4,1.3-0.7,2l-1.4,3.5h-1.7
				L-1253.6,459.5z"/>
			<path d="M-1226.6,463.8c0-2.6,2-4.5,4.2-4.5c1.9,0,3.1,1.3,3.1,3.2c0,2.6-2,4.5-4.2,4.5C-1225.5,467-1226.6,465.7-1226.6,463.8z
				 M-1220.7,462.6c0-1.3-0.7-2.1-1.8-2.1c-1.4,0-2.7,1.4-2.7,3.2c0,1.3,0.7,2.1,1.8,2.1C-1222,465.8-1220.7,464.4-1220.7,462.6z"/>
			<path d="M-1216.4,459.6l2.1-0.1h4.3l-0.2,1.1h-6.4L-1216.4,459.6z M-1214.2,458.8c0.4-1.9,1.5-2.8,3.3-2.8c0.9,0,1.7,0.3,2.2,0.7
				l-0.6,0.9c-0.4-0.3-0.9-0.5-1.5-0.5c-1,0-1.7,0.5-1.9,1.7l-1.6,8h-1.4L-1214.2,458.8z"/>
			<path d="M-1207.4,459.6l2.1-0.1h4.3l-0.2,1.1h-6.4L-1207.4,459.6z M-1205.2,458.8c0.4-1.9,1.5-2.8,3.3-2.8c0.9,0,1.7,0.3,2.2,0.7
				l-0.6,0.9c-0.4-0.3-0.9-0.5-1.5-0.5c-1,0-1.7,0.5-1.9,1.7l-1.6,8h-1.4L-1205.2,458.8z"/>
			<path d="M-1197.2,465.1c0-0.3,0-0.5,0.1-0.8l0.8-3.7h-2.6l0.2-1.1h4l-1.1,4.9c0,0.2-0.1,0.3-0.1,0.4c0,0.7,0.4,1,1.1,1
				c0.4,0,0.8-0.1,1.3-0.4l0.3,1c-0.6,0.3-1.2,0.5-2.1,0.5C-1196.3,467-1197.2,466.3-1197.2,465.1z M-1196.1,457.1
				c0-0.6,0.5-1.1,1.2-1.1c0.6,0,1,0.3,1,0.9c0,0.6-0.5,1.1-1.2,1.1C-1195.7,458-1196.1,457.7-1196.1,457.1z"/>
			<path d="M-1190.3,463.8c0-2.7,2.1-4.5,4.4-4.5c1.3,0,2.2,0.6,2.8,1.3l-0.9,0.8c-0.5-0.6-1.2-0.9-2-0.9c-1.4,0-2.9,1.4-2.9,3.2
				c0,1.5,0.9,2.2,2.2,2.2c0.8,0,1.6-0.4,2.2-1l0.5,0.9c-0.8,0.7-1.8,1.2-2.9,1.2C-1188.8,467-1190.3,465.9-1190.3,463.8z"/>
			<path d="M-1181.4,463.8c0-2.6,2-4.5,4.2-4.5c1.8,0,2.8,1.2,2.8,2.8c0,0.5-0.1,1.2-0.2,1.4h-5.8l0.2-1h4.9l-0.5,0.2
				c0.1-0.2,0.1-0.4,0.1-0.6c0-1.1-0.6-1.7-1.6-1.7c-1.3,0-2.8,1.3-2.8,3.3c0,1.4,0.8,2.2,2.1,2.2c0.9,0,1.7-0.4,2.4-0.9l0.5,0.9
				c-0.8,0.6-1.9,1.1-3.2,1.1C-1180.1,467-1181.4,465.9-1181.4,463.8z"/>
			<path d="M-1161.2,465.1c0-0.3,0-0.5,0.1-0.8l0.8-3.7h-2.6l0.2-1.1h4l-1.1,4.9c0,0.2-0.1,0.3-0.1,0.4c0,0.7,0.4,1,1.1,1
				c0.4,0,0.8-0.1,1.3-0.4l0.3,1c-0.6,0.3-1.2,0.5-2.1,0.5C-1160.3,467-1161.2,466.3-1161.2,465.1z M-1160.1,457.1
				c0-0.6,0.5-1.1,1.2-1.1c0.6,0,1,0.3,1,0.9c0,0.6-0.5,1.1-1.2,1.1C-1159.7,458-1160.1,457.7-1160.1,457.1z"/>
			<path d="M-1153.4,459.5h1.1l-0.2,1.4h0.1c0.8-0.8,1.9-1.6,3.2-1.6c1.3,0,1.9,0.7,1.9,1.8c0,0.4-0.1,0.8-0.1,1.2l-0.9,4.5h-1.4
				l0.9-4.3c0.1-0.4,0.1-0.7,0.1-1c0-0.7-0.4-1-1.1-1c-0.9,0-1.8,0.6-2.7,1.6l-0.9,4.7h-1.4L-1153.4,459.5z"/>
			<path d="M-1132.7,458.2h-3.2l0.2-1.2h7.8l-0.2,1.2h-3.2l-1.7,8.6h-1.4L-1132.7,458.2z"/>
			<path d="M-1125.5,459.5l1.1,0l-0.3,2.1h0.1c0.8-1.3,2-2.2,3.2-2.2c0.6,0,1.1,0.1,1.5,0.4l-0.5,1.2c-0.4-0.2-0.7-0.3-1.2-0.3
				c-1.1,0-2.2,1-3.2,2.6l-0.7,3.7h-1.4L-1125.5,459.5z"/>
			<path d="M-1118.6,463.8c0-2.6,2-4.5,4.2-4.5c1.9,0,3.1,1.3,3.1,3.2c0,2.6-2,4.5-4.2,4.5C-1117.5,467-1118.6,465.7-1118.6,463.8z
				 M-1112.7,462.6c0-1.3-0.7-2.1-1.8-2.1c-1.4,0-2.7,1.4-2.7,3.2c0,1.3,0.7,2.1,1.8,2.1C-1114,465.8-1112.7,464.4-1112.7,462.6z"/>
			<path d="M-1108.4,459.5h1.1l-0.2,1.4h0.1c0.8-0.8,1.9-1.6,3.2-1.6c1.3,0,1.9,0.7,1.9,1.8c0,0.4-0.1,0.8-0.1,1.2l-0.9,4.5h-1.4
				l0.9-4.3c0.1-0.4,0.1-0.7,0.1-1c0-0.7-0.4-1-1.1-1c-0.9,0-1.8,0.6-2.7,1.6l-0.9,4.7h-1.4L-1108.4,459.5z"/>
			<path d="M-1099,464.9c0-0.3,0-0.6,0.1-1l0.7-3.3h-2.1l0.2-1l2.2-0.1l0.7-2.3h1.1l-0.5,2.3h3.5l-0.2,1.1h-3.5l-0.7,3.3
				c-0.1,0.3-0.1,0.5-0.1,0.6c0,0.9,0.5,1.3,1.3,1.3c0.7,0,1.3-0.2,1.8-0.5l0.4,1c-0.6,0.4-1.6,0.7-2.7,0.7
				C-1098.3,467-1099,466.2-1099,464.9z"/>
		</g>
	</g>
	<g>
		<g>
			<path class="st1" d="M-1262,394h-7.6v-2.5h18.2v2.5h-7.6v20.5h-2.9V394z"/>
			<path class="st1" d="M-1247.2,410.1c0-3.8,3.6-5.7,12.4-6.4c-0.1-2.3-1.2-4.3-4.5-4.3c-2.2,0-4.4,1.1-6,2l-1.2-2
				c1.8-1.1,4.6-2.5,7.6-2.5c4.7,0,6.9,2.8,6.9,7v10.5h-2.4l-0.2-2.3h-0.1c-1.9,1.5-4.3,2.7-6.7,2.7
				C-1244.6,414.9-1247.2,413.2-1247.2,410.1z M-1234.8,410.1v-4.4c-7.3,0.6-9.5,2-9.5,4.2c0,1.9,1.8,2.7,3.7,2.7
				C-1238.7,412.6-1236.8,411.7-1234.8,410.1z"/>
			<path class="st1" d="M-1225.7,397.5h2.4l0.2,2.9h0.1c1.8-1.9,3.8-3.3,6.4-3.3c4,0,5.9,2.4,5.9,6.9v10.6h-2.9v-10.2
				c0-3.2-1.1-4.7-3.9-4.7c-2,0-3.4,1-5.4,3.1v11.9h-2.9V397.5z"/>
			<path class="st1" d="M-1204.2,389.5h2.9v16.9h0.1l9.2-8.9h3.3l-12.6,12.4v4.6h-2.9V389.5z M-1197.7,405.5l1.8-1.9l8.1,10.9h-3.2
				L-1197.7,405.5z"/>
			<path class="st1" d="M-1184.1,410.1c0-3.8,3.6-5.7,12.4-6.4c-0.1-2.3-1.2-4.3-4.5-4.3c-2.2,0-4.4,1.1-6,2l-1.2-2
				c1.8-1.1,4.6-2.5,7.6-2.5c4.7,0,6.9,2.8,6.9,7v10.5h-2.4l-0.2-2.3h-0.1c-1.9,1.5-4.3,2.7-6.7,2.7
				C-1181.4,414.9-1184.1,413.2-1184.1,410.1z M-1171.7,410.1v-4.4c-7.3,0.6-9.5,2-9.5,4.2c0,1.9,1.8,2.7,3.7,2.7
				C-1175.5,412.6-1173.6,411.7-1171.7,410.1z"/>
			<path class="st1" d="M-1160.7,397.5h2.4l0.3,4h0.1c1.8-2.8,4.5-4.5,7.6-4.5c1.3,0,2.3,0.2,3.4,0.7l-0.7,2.5
				c-1.2-0.4-1.8-0.6-3.2-0.6c-2.6,0-5,1.3-7,4.9v10h-2.9V397.5z"/>
			<path class="st1" d="M-1142.7,406c0-5.5,3.7-9,7.7-9c2,0,3.6,0.8,5.1,2.2h0.1l-0.1-3.1v-6.6h2.9v25h-2.4l-0.2-2.2h-0.1
				c-1.4,1.4-3.4,2.7-5.6,2.7C-1139.7,414.9-1142.7,411.7-1142.7,406z M-1129.9,410v-8.5c-1.5-1.4-3-2-4.5-2c-2.9,0-5.3,2.6-5.3,6.5
				c0,4.1,1.9,6.5,5,6.5C-1133,412.5-1131.4,411.6-1129.9,410z"/>
			<path class="st1" d="M-1121.2,412.3l1.3-1.9c2,1.4,4.3,2.3,7.4,2.3c2.9,0,4.3-1.2,4.3-2.6c0-1.3-0.7-2.2-5.3-3.2
				c-4.5-0.9-6.7-2.4-6.7-5c0-2.7,2.4-4.8,7.1-4.8c2.6,0,5.2,1,6.9,2.2l-1.4,1.9c-1.6-1.1-3.5-1.8-5.7-1.8c-2.9,0-3.9,1.2-3.9,2.5
				c0,1.5,1.5,2.1,5,2.8c5.7,1.2,7,2.6,7,5.3c0,2.8-2.7,5.1-7.6,5.1C-1116.2,414.9-1119.2,413.7-1121.2,412.3z"/>
		</g>
	</g>
</g>
<g id="sitemap">
	<rect x="-865" y="685" class="st16" width="586" height="5"/>
	
		<rect x="-644.4" y="621.6" transform="matrix(-1.836970e-16 1 -1 -1.836970e-16 44.637 1203.363)" class="st16" width="130" height="4.7"/>
	<polygon style="fill:none;" points="-1157.7,587.1 -1151.2,587.1 -1151.2,587.1 -1157.7,587.1 	"/>
	<rect x="-788" y="449" class="st17" width="412" height="62"/>
	<rect x="-691" y="556" class="st16" width="218" height="62"/>
	<rect x="-1064" y="652" class="st16" width="218" height="62"/>
	<rect x="-812" y="652" class="st16" width="218" height="62"/>
	<rect x="-560" y="652" class="st16" width="218" height="62"/>
	<rect x="-308" y="652" class="st16" width="218" height="62"/>
	<text transform="matrix(1 0 0 1 -692.895 487.5801)" class="st8 st2" style="font-size:28px;">Tankards sitemap</text>
	<text transform="matrix(1 0 0 1 -617.895 595.5801)" class="st8 st2" style="font-size:28px;">Home</text>
	<text transform="matrix(1 0 0 1 -990.078 691.5801)" class="st8 st2" style="font-size:28px;">Service</text>
	<text transform="matrix(1 0 0 1 -239.895 691.5801)" class="st8 st2" style="font-size:28px;">Contact</text>
	<text transform="matrix(1 0 0 1 -726.1948 691.5801)" class="st8 st2" style="font-size:28px;">Staff</text>
	<text transform="matrix(1 0 0 1 -495.7062 688.5801)" class="st8 st2" style="font-size:28px;">History</text>
	<polygon style="fill:none;" points="-730,668 -743,668 -743,668 -730,668 	"/>
</g>
</svg>
